<svg width="24" height="24" viewBox="0 0 24 24" fill="none" xmlns="http://www.w3.org/2000/svg">
<g id="arrow-ios-back">
<path id="Vector" d="M19.0003 10.1701C19.0008 10.3195 18.9678 10.4671 18.9038 10.6021C18.8398 10.737 18.7463 10.856 18.6303 10.9501L12.6303 15.7801C12.4513 15.9272 12.2269 16.0076 11.9953 16.0076C11.7637 16.0076 11.5392 15.9272 11.3603 15.7801L5.36028 10.7801C5.15606 10.6103 5.02763 10.3664 5.00325 10.102C4.97888 9.83758 5.06054 9.5743 5.23028 9.37008C5.40001 9.16586 5.64393 9.03744 5.90835 9.01306C6.17278 8.98868 6.43606 9.07034 6.64028 9.24008L12.0003 13.7101L17.3603 9.39008C17.5071 9.2678 17.6858 9.19012 17.8753 9.16624C18.0649 9.14236 18.2573 9.17328 18.4299 9.25533C18.6024 9.33739 18.7478 9.46715 18.8489 9.62926C18.95 9.79137 19.0025 9.97905 19.0003 10.1701Z" fill="white"/>
</g>
</svg>
