<svg width="20" height="20" viewBox="0 0 20 20" fill="none" xmlns="http://www.w3.org/2000/svg">
<g id="finish 1" clip-path="url(#clip0_184_2920)">
<g id="Page-1">
<g id="037---Waypoint-Flag">
<path id="Shape" d="M5.06125 19.9826L5.42946 19.8797C5.78363 19.7807 5.99049 19.4134 5.89153 19.0592L1.68177 3.99408C1.62237 3.78147 1.48094 3.60117 1.2886 3.49285C1.09625 3.38452 0.868757 3.35704 0.656154 3.41646L0.608602 3.42973C0.165852 3.55344 -0.0927868 4.01264 0.0309124 4.45539L4.24077 19.5205C4.33974 19.8747 4.70708 20.0816 5.06125 19.9826Z" fill="#92929D"/>
<path id="Shape_2" d="M19.8856 9.455C18.5506 8.78933 17.3156 7.93967 16.2167 6.93086C16.1243 6.8463 16.0882 6.7165 16.1236 6.59638C16.6681 4.53644 17.0725 2.442 17.3339 0.327417C17.3753 -0.0243074 17.1856 -0.127756 16.9856 0.113624C13.0615 4.80672 6.27185 -0.744997 2.23047 3.52052C2.27899 3.61136 2.31716 3.70736 2.34426 3.80672L5.0753 13.586C9.12358 9.37224 15.8891 14.8895 19.8063 10.2067C20.0063 9.96534 20.0443 9.52396 19.8856 9.455Z" fill="#92929D"/>
</g>
</g>
</g>
<defs>
<clipPath id="clip0_184_2920">
<rect width="20" height="20" fill="white"/>
</clipPath>
</defs>
</svg>
