<svg width="20" height="20" viewBox="0 0 20 20" fill="none" xmlns="http://www.w3.org/2000/svg">
<g id="shield (2) 1" clip-path="url(#clip0_184_2863)">
<g id="Group">
<g id="Group_2">
<path id="Vector" d="M18.0137 2.37824L10.1687 0.0247266C10.0589 -0.00824219 9.94184 -0.00824219 9.83195 0.0247266L1.98687 2.37824C1.73906 2.45258 1.56934 2.6807 1.56934 2.93945V11.569C1.56934 12.6914 2.02375 13.8404 2.91988 14.984C3.6043 15.8575 4.55121 16.7345 5.73422 17.5909C7.7216 19.0295 9.67859 19.912 9.76094 19.9488C9.83707 19.9829 9.91871 20 10.0004 20C10.082 20 10.1636 19.983 10.2398 19.9488C10.3221 19.912 12.279 19.0295 14.2664 17.5909C15.4494 16.7345 16.3963 15.8575 17.0807 14.984C17.9769 13.8404 18.4312 12.6914 18.4312 11.569V2.93945C18.4312 2.6807 18.2616 2.45258 18.0137 2.37824Z" fill="#92929D"/>
</g>
</g>
</g>
<defs>
<clipPath id="clip0_184_2863">
<rect width="20" height="20" fill="white"/>
</clipPath>
</defs>
</svg>
